<?xml version="1.0" encoding="iso-8859-1"?>
<!-- Generator: Adobe Illustrator 18.1.1, SVG Export Plug-In . SVG Version: 6.00 Build 0)  -->
<svg  version="1.1" id="Capa_1" xmlns="http://www.w3.org/2000/svg" xmlns:xlink="http://www.w3.org/1999/xlink" x="0px" y="0px"
	 viewBox="0 0 27.964 27.964" style="enable-background:new 0 0 27.964 27.964;" xml:space="preserve">
<g>
	<g id="c144_ray">
		<path style="fill:#51cbce;" d="M13.982,0.001C6.26,0.001,0,6.261,0,13.981c0,7.724,6.26,13.983,13.982,13.983
			c7.725,0,13.982-6.26,13.982-13.983C27.965,6.261,21.707,0.001,13.982,0.001z M13.982,26.533c-6.932,0-12.551-5.62-12.551-12.552
			c0-6.93,5.619-12.549,12.551-12.549s12.551,5.62,12.551,12.549C26.533,20.913,20.914,26.533,13.982,26.533z"/>
		<polygon style="fill:#51cbce;" points="18.781,4.558 8.002,15.279 11.998,15.279 8.926,23.408 19.965,12.689 15.965,12.689 		"/>
	</g>
</g>
<g>
</g>
<g>
</g>
<g>
</g>
<g>
</g>
<g>
</g>
<g>
</g>
<g>
</g>
<g>
</g>
<g>
</g>
<g>
</g>
<g>
</g>
<g>
</g>
<g>
</g>
<g>
</g>
<g>
</g>
</svg>
