<svg width="200" height="40" viewBox="0 0 230 40" fill="none" xmlns="http://www.w3.org/2000/svg">
<path fill-rule="evenodd" clip-rule="evenodd" d="M45.4775 13.4533L45.4767 13.454V13.4555L45.3068 13.5434C42.9317 9.88424 38.9423 7.05263 34.69 6.03888C30.436 5.02513 25.0014 5.61007 20.8868 7.7226L20.7878 7.57233L35.211 0.168938C35.5373 0.0016314 35.9249 -0.0436301 36.2887 0.0431049C36.6524 0.12984 36.9626 0.341471 37.1509 0.631467L45.4775 13.4533Z" fill="#2B3990"/>
<path fill-rule="evenodd" clip-rule="evenodd" d="M28.8837 1.01486V1.19005C24.1326 1.18272 19.3773 2.82759 16.2577 5.5903C13.1357 8.35375 10.9773 12.8273 10.9675 17.0502H10.7729L10.8083 2.24412C10.8087 2.07829 10.8457 1.91415 10.9174 1.76107C10.9891 1.60799 11.094 1.46898 11.2262 1.35196C11.3583 1.23494 11.5151 1.14223 11.6876 1.0791C11.86 1.01598 12.0448 0.983688 12.2313 0.984073L28.8837 1.01486Z" fill="#E79B24"/>
<path fill-rule="evenodd" clip-rule="evenodd" d="M8.58072 6.6312L8.7522 6.71916C6.35892 10.3688 5.57243 14.8519 6.69528 18.6379C7.81567 22.4261 11.0861 26.3286 15.1892 28.4565L15.0903 28.6061L0.704253 21.1492C0.379072 20.9801 0.142619 20.7032 0.0467898 20.3793C-0.049039 20.0554 0.00358612 19.7109 0.193115 19.4215L8.58155 6.63266L8.58072 6.6312Z" fill="#2B3990"/>
<path fill-rule="evenodd" clip-rule="evenodd" d="M4.78516 26.454L4.78598 26.4525V26.451L4.95581 26.3653C7.30622 30.0362 11.2725 32.892 15.5191 33.9299C19.7656 34.9657 25.206 34.4115 29.3346 32.3246L29.4311 32.4749L14.956 39.7955C14.6287 39.9609 14.241 40.004 13.8779 39.9155C13.5148 39.827 13.2061 39.6141 13.0194 39.3234L4.78516 26.454Z" fill="#E79B24"/>
<path fill-rule="evenodd" clip-rule="evenodd" d="M20.3089 39.8746V39.8739H20.3073L20.3089 39.6994C25.0592 39.7346 29.8268 38.1161 32.9662 35.371C36.108 32.6259 38.2985 28.1648 38.3389 23.9404L38.5334 23.9426L38.3916 38.748C38.3903 38.9138 38.3523 39.0777 38.2796 39.2305C38.2069 39.3832 38.1011 39.5217 37.9682 39.6379C37.8352 39.7542 37.6778 39.8461 37.5049 39.9082C37.3319 39.9703 37.1469 40.0015 36.9605 40L20.3089 39.8746Z" fill="#2B3990"/>
<path fill-rule="evenodd" clip-rule="evenodd" d="M41.6514 33.5238V33.5246L41.4808 33.4359C43.8996 29.8002 44.7174 25.3207 43.6243 21.5281C42.5278 17.7341 39.2887 13.811 35.2004 11.6611L35.2993 11.5116L49.631 19.052C49.955 19.2225 50.1896 19.5004 50.2833 19.8247C50.377 20.1489 50.322 20.493 50.1305 20.7812L41.6514 33.5238Z" fill="#E79B24"/>
<path fill-rule="evenodd" clip-rule="evenodd" d="M84.59 21.9788L86.243 18.2771L87.8737 21.9788H84.59ZM84.318 13.9971L78.0821 27.1136H82.3501L83.3979 24.7892H89.046L90.1128 27.1128H94.4657L88.2315 13.9978L84.318 13.9971ZM78.7317 14.0469H73.9196L68.8964 19.373V14.0469H64.7125V27.0696H68.8964V23.7468L70.3721 22.2552L74.0449 27.0696H76.8001L77.608 25.3917L73.1867 19.6581L78.7317 14.0469ZM114.153 21.9788L115.806 18.2771L117.438 21.9788H114.153ZM113.881 13.9971L107.646 27.1128H111.914L112.961 24.7885H118.61L119.676 27.1121H124.029L117.794 13.9971H113.881ZM107.873 24.0928H100.616L107.813 16.7136V14.0477H95.258V17.396H102.353L94.7254 24.7899L95.8062 27.0696H106.557L107.971 24.0928H107.873ZM121.497 17.2531H125.892V27.1121H129.951V17.2531H134.344V14.0909H121.497V17.2531ZM142.483 24.1177C140.265 24.1177 138.738 22.4809 138.738 20.6022C138.738 18.6854 140.223 17.086 142.441 17.086C144.68 17.086 146.208 18.7221 146.208 20.6022C146.208 22.5183 144.722 24.1177 142.483 24.1177ZM142.483 13.8292C137.963 13.8292 134.574 16.8617 134.574 20.6022C134.574 24.3772 137.921 27.373 142.441 27.373C146.959 27.373 150.35 24.3406 150.35 20.6022C150.35 16.8258 147.001 13.8292 142.483 13.8292ZM175.352 20.5648H173.427V17.1226H175.331C176.796 17.1226 177.672 17.7178 177.672 18.8342C177.672 19.8949 176.796 20.5648 175.352 20.5648ZM175.644 14.0902H169.367V27.1128H173.427V23.3921H175.437C179.077 23.3921 181.733 21.7743 181.733 18.7037C181.733 15.7834 179.348 14.0902 175.644 14.0902ZM189.767 20.3413H187.09V17.2157H189.747C191.107 17.2157 191.944 17.7376 191.944 18.7602C191.944 19.7461 191.147 20.3413 189.767 20.3413ZM196.025 18.5747C196.025 17.2531 195.584 16.2489 194.726 15.4858C193.742 14.6113 192.194 14.0909 189.955 14.0909H183.03V27.1136H187.09V23.17H188.867L191.817 27.1136H196.505L193.01 22.5748C194.832 21.8857 196.024 20.5648 196.024 18.5755L196.025 18.5747ZM205.062 24.1177C202.843 24.1177 201.316 22.4809 201.316 20.6022C201.316 18.6854 202.801 17.086 205.019 17.086C207.259 17.086 208.787 18.7221 208.787 20.6022C208.787 22.5183 207.301 24.1177 205.062 24.1177ZM205.062 13.8292C200.542 13.8292 197.152 16.8617 197.152 20.6022C197.152 24.3772 200.5 27.373 205.019 27.373C209.539 27.373 212.929 24.3406 212.929 20.6022C212.929 16.8258 209.58 13.8292 205.062 13.8292ZM159.409 19.0886L155.914 14.0469H151.751V27.0696H155.515V19.6713L158.69 24.0921H160.042L163.047 19.6339V27.0696H167.232V14.0469H162.904L159.409 19.0886Z" fill="#2B3990"/>
<mask id="mask0_40:718" style="mask-type:alpha" maskUnits="userSpaceOnUse" x="214" y="14" width="16" height="14">
<path d="M214.517 14.047H230V27.0697H214.517L214.517 14.047Z" fill="white"/>
</mask>
<g mask="url(#mask0_40:718)">
<path fill-rule="evenodd" clip-rule="evenodd" d="M225.9 14.047L222.405 19.0887L218.911 14.047H214.517V27.0697H218.702V19.6736L221.686 24.0937H223.039L226.234 19.6355V27.0697H230V14.047H225.9Z" fill="#2B3990"/>
</g>
</svg>
